<svg width="25" height="25" viewBox="0 0 25 25" fill="none" xmlns="http://www.w3.org/2000/svg">
<path d="M17.9322 4.40702C17.6928 4.30702 17.4052 4.39408 17.2904 4.60077C17.175 4.80829 17.275 5.05741 17.5139 5.15746C21.4773 6.81743 24.0384 10.3541 24.0384 14.1666C24.0384 19.6804 18.862 24.1666 12.5 24.1666C6.13797 24.1666 0.961556 19.6804 0.961556 14.1666C0.961556 10.4437 3.40722 6.9895 7.21153 5.28325V8.74991C7.21153 8.90743 7.31395 9.05157 7.47644 9.12242C7.54472 9.15201 7.61875 9.16661 7.69228 9.16661C7.79375 9.16661 7.8942 9.13912 7.97882 9.08453L15.1904 4.44203C15.3197 4.35868 15.3923 4.22494 15.3836 4.08578C15.3749 3.94662 15.2865 3.81996 15.148 3.74872L7.93651 0.0578886C7.78794 -0.0183811 7.60382 -0.0192112 7.45385 0.0549589C7.30387 0.12869 7.21153 0.26702 7.21153 0.41663V4.37333C7.16251 4.38002 7.11299 4.38832 7.06487 4.40834C2.77306 6.20664 0 10.0371 0 14.1666C0 20.1404 5.6077 25 12.5 25C19.3923 25 25 20.1404 25 14.1666C24.9999 10.0362 22.2254 6.20537 17.9322 4.40702Z" fill="black"/>
</svg>
